<svg width="1920" height="1080" viewBox="0 0 1920 1080" fill="none" xmlns="http://www.w3.org/2000/svg">
<g clip-path="url(#clip0_183_539)">
<rect width="1920" height="1080" fill="#0D0D0D"/>
<path fill-rule="evenodd" clip-rule="evenodd" d="M1996.78 1529.81C1990.9 1434.43 1974.29 1308.94 1888.9 1202.87C1862.18 1169.68 1828.73 1138.39 1786.76 1110.52C1765.86 1085.61 1741.04 1061.85 1711.53 1039.89C1709.57 1037.33 1707.57 1034.79 1705.52 1032.25C1690.28 1013.31 1672.84 994.995 1652.88 977.579C1646.32 967.844 1639.25 958.228 1631.63 948.767C1629.21 945.755 1626.73 942.759 1624.19 939.779C1615.92 850.37 1593.89 742.593 1519.11 649.708C1433.72 543.63 1279.57 457.019 998.708 439.307C820.004 428.037 686.047 448.587 579.008 480.362C490.159 506.737 419.858 540.846 357.93 570.894L357.909 570.904C345.241 577.05 332.924 583.026 320.87 588.731C249.871 622.335 188.018 646.529 117.437 640.792C46.854 635.056 -32.5109 599.38 -138.494 513.112L-138.887 513.544C-32.8696 599.842 46.6018 635.598 117.356 641.348C188.112 647.099 250.098 622.836 321.106 589.228C333.174 583.517 345.504 577.535 358.182 571.383C420.109 541.337 490.358 507.253 579.153 480.894C686.12 449.141 820.002 428.598 998.637 439.864C1279.38 457.568 1433.36 544.134 1518.64 650.063C1593.09 742.539 1615.2 849.807 1623.53 939.003C1620.76 935.763 1617.92 932.544 1615.01 929.345C1612.82 925.374 1610.56 921.416 1608.22 917.472C1593.93 850.776 1567.47 780.441 1516.43 717.043C1431.03 610.966 1276.88 524.354 996.023 506.642C817.319 495.373 683.363 515.923 576.323 547.698C487.475 574.072 417.174 608.182 355.245 638.229C342.57 644.379 330.246 650.359 318.185 656.067C247.187 689.67 185.334 713.864 114.753 708.128C44.1695 702.391 -35.1954 666.716 -141.178 580.447L-141.572 580.88C-35.5538 667.177 43.9175 702.933 114.671 708.684C185.428 714.435 247.414 690.172 318.421 656.564C330.49 650.852 342.82 644.87 355.498 638.718C417.425 608.672 487.674 574.588 576.469 548.229C683.435 516.476 817.318 495.934 995.952 507.199C1276.7 524.904 1430.68 611.469 1515.96 717.398C1566.49 780.171 1592.91 849.759 1607.28 915.883C1605.44 912.823 1603.57 909.771 1601.64 906.73C1586.1 866.825 1564.59 827.17 1534.6 789.911C1449.2 683.833 1295.05 597.221 1014.2 579.51C835.491 568.24 701.535 588.79 594.495 620.565C505.647 646.94 435.346 681.049 373.417 711.096C360.742 717.246 348.418 723.226 336.357 728.934C265.359 762.538 203.506 786.732 132.925 780.995C62.3416 775.259 -17.0234 739.583 -123.006 653.314L-123.4 653.747C-17.382 740.044 62.0894 775.801 132.843 781.551C203.6 787.302 265.586 763.039 336.593 729.431C348.662 723.719 360.992 717.737 373.67 711.586C435.597 681.539 505.846 647.456 594.64 621.097C701.607 589.343 835.49 568.801 1014.12 580.066C1294.87 597.771 1448.85 684.337 1534.13 790.266C1563.38 826.603 1584.55 865.225 1599.99 904.137C1592.03 891.762 1583.28 879.562 1573.66 867.609C1488.26 761.532 1334.11 674.92 1053.25 657.208C874.547 645.939 740.591 666.488 633.551 698.264C544.703 724.638 474.402 758.748 412.473 788.795L412.441 788.811L412.363 788.848C399.727 794.979 387.439 800.941 375.413 806.633C304.414 840.236 242.561 864.43 171.981 858.694C101.397 852.957 22.0324 817.282 -83.9506 731.013L-84.3443 731.446C21.6738 817.743 101.145 853.499 171.899 859.25C242.656 865.001 304.641 840.738 375.649 807.13C387.718 801.418 400.047 795.436 412.726 789.284L412.727 789.284C474.654 759.238 544.902 725.154 633.696 698.795C740.663 667.042 874.546 646.5 1053.18 657.765C1333.92 675.47 1487.91 762.035 1573.18 867.964C1583.45 880.722 1592.73 893.761 1601.11 906.996C1602.73 911.169 1604.29 915.345 1605.79 919.522C1516.26 827.074 1365.79 754.419 1111.23 738.366C932.525 727.096 798.569 747.646 691.529 779.421C602.681 805.796 532.38 839.905 470.451 869.953C457.776 876.103 445.452 882.082 433.391 887.791C362.393 921.394 300.54 945.588 229.959 939.851C159.375 934.115 80.0106 898.439 -25.9723 812.171L-26.3659 812.604C79.652 898.901 159.123 934.657 229.877 940.407C300.634 946.158 362.62 921.895 433.627 888.288C445.662 882.592 457.956 876.627 470.596 870.494L470.684 870.452L470.704 870.442C532.631 840.396 602.88 806.312 691.674 779.953C798.641 748.2 932.524 727.657 1111.16 738.923C1366.48 755.024 1516.96 828.083 1606.27 920.864C1608 925.738 1609.65 930.612 1611.21 935.482C1611.9 939.192 1612.55 942.888 1613.17 946.567C1520.75 881.971 1385.03 834.456 1185.12 821.849C1006.42 810.58 872.459 831.129 765.42 862.904C676.571 889.279 606.27 923.389 544.342 953.436C531.667 959.586 519.342 965.565 507.282 971.274C436.283 1004.88 374.43 1029.07 303.849 1023.33C233.266 1017.6 153.901 981.923 47.9181 895.654L47.5245 896.087C153.542 982.384 233.014 1018.14 303.768 1023.89C374.524 1029.64 436.51 1005.38 507.518 971.771C519.586 966.059 531.916 960.076 544.594 953.925C606.522 923.879 676.771 889.795 765.565 863.436C872.531 831.683 1006.41 811.141 1185.05 822.406C1385.24 835.03 1520.97 882.667 1613.3 947.372C1615.43 960.087 1617.16 972.605 1618.59 984.848C1532.5 944.517 1419.72 916.077 1271.8 906.749C1093.1 895.479 959.142 916.029 852.102 947.804C763.254 974.179 692.953 1008.29 631.024 1038.34C618.349 1044.49 606.025 1050.46 593.964 1056.17C522.965 1089.78 461.113 1113.97 390.532 1108.23C319.948 1102.5 240.583 1066.82 134.601 980.553L134.207 980.986C240.225 1067.28 319.696 1103.04 390.45 1108.79C461.207 1114.54 523.192 1090.28 594.2 1056.67C606.269 1050.96 618.598 1044.98 631.277 1038.82L631.278 1038.82C693.205 1008.78 763.453 974.694 852.247 948.336C959.214 916.582 1093.1 896.04 1271.73 907.305C1419.8 916.643 1532.6 945.135 1618.67 985.519C1620.68 1002.78 1622.09 1019.5 1623.17 1035.44C1552.63 1013.86 1468.61 998.787 1368.5 992.474C1189.8 981.204 1055.84 1001.75 948.8 1033.53C859.951 1059.9 789.65 1094.01 727.721 1124.06L727.713 1124.06C715.041 1130.21 702.72 1136.19 690.661 1141.9C619.663 1175.5 557.81 1199.7 487.229 1193.96C416.646 1188.22 337.281 1152.55 231.298 1066.28L230.904 1066.71C336.922 1153.01 416.394 1188.76 487.148 1194.51C557.904 1200.27 619.89 1176 690.897 1142.4C702.966 1136.68 715.296 1130.7 727.974 1124.55L727.976 1124.55C789.903 1094.5 860.151 1060.42 948.945 1034.06C1055.91 1002.31 1189.79 981.765 1368.43 993.03C1468.62 999.349 1552.67 1014.44 1623.21 1036.05C1623.39 1038.73 1623.56 1041.4 1623.72 1044.04L1624.31 1043.98C1624.15 1041.42 1623.99 1038.83 1623.81 1036.23C1627.39 1037.33 1630.93 1038.45 1634.44 1039.58C1638.24 1066.74 1640.41 1092.79 1641.9 1116.91L1642.48 1116.85C1641 1092.81 1638.83 1066.85 1635.06 1039.78C1643.68 1042.57 1652.09 1045.46 1660.3 1048.45C1673.25 1100.31 1678.24 1150.65 1680.95 1194.61L1681.54 1194.54C1678.83 1150.69 1673.86 1100.46 1660.97 1048.69C1673.45 1053.24 1685.46 1058.02 1697.02 1062.99C1726.58 1137.52 1735.07 1213.12 1738.93 1275.77L1739.51 1275.7C1735.66 1213.19 1727.2 1137.76 1697.79 1063.33C1712.71 1069.78 1726.88 1076.57 1740.33 1083.67C1795.28 1177.11 1807.86 1278.84 1812.82 1359.25L1813.4 1359.19C1808.46 1278.99 1795.93 1177.52 1741.32 1084.2C1757.33 1092.7 1772.31 1101.63 1786.35 1110.95C1788.17 1113.12 1789.97 1115.31 1791.74 1117.5C1877.02 1223.44 1893.62 1348.79 1899.5 1444.15L1900.09 1444.08C1894.21 1348.71 1877.6 1223.22 1792.21 1117.15C1790.85 1115.46 1789.47 1113.78 1788.08 1112.1C1829.22 1139.66 1862.1 1170.52 1888.43 1203.23C1973.72 1309.17 1990.32 1434.52 1996.2 1529.87L1996.78 1529.81ZM1623.62 940.021C1621.21 937.188 1618.74 934.37 1616.23 931.568C1619.02 936.708 1621.69 941.868 1624.25 947.044C1624.05 944.716 1623.84 942.375 1623.62 940.021ZM1624.39 948.664C1621.27 942.309 1617.99 935.978 1614.52 929.679C1612.92 927.927 1611.31 926.182 1609.67 924.443C1610.41 928.083 1611.11 931.711 1611.78 935.325C1613.19 939.696 1614.53 944.064 1615.81 948.426C1618.89 950.608 1621.92 952.81 1624.9 955.031C1624.74 952.92 1624.56 950.798 1624.39 948.664ZM1625.53 955.497C1625.39 953.713 1625.24 951.922 1625.1 950.122C1626.36 952.736 1627.6 955.354 1628.81 957.975C1627.73 957.146 1626.63 956.32 1625.53 955.497ZM1624.96 955.802C1625.51 962.912 1625.99 969.886 1626.41 976.706L1626.99 976.643C1626.58 969.993 1626.12 963.196 1625.59 956.269C1626.84 957.211 1628.09 958.156 1629.33 959.105C1635.27 972.055 1640.52 985.082 1645.16 998.109C1638.92 994.793 1632.52 991.543 1625.97 988.364C1623.16 975.458 1619.89 962.42 1616.07 949.327C1619.08 951.467 1622.04 953.626 1624.96 955.802ZM1624.96 948.493C1624.75 945.944 1624.52 943.379 1624.29 940.799C1626.63 943.559 1628.92 946.334 1631.16 949.122C1638.29 957.979 1644.94 966.973 1651.15 976.073C1644.33 970.187 1637.23 964.406 1629.82 958.74C1628.25 955.319 1626.63 951.902 1624.96 948.493ZM1602.75 909.611C1604.43 912.298 1606.06 914.993 1607.67 917.695C1608.01 919.312 1608.35 920.927 1608.68 922.539C1608.37 922.205 1608.05 921.871 1607.73 921.538C1607.42 921.21 1607.1 920.882 1606.79 920.554C1605.49 916.906 1604.15 913.258 1602.75 909.611ZM1608.61 919.293C1608.89 920.647 1609.18 922 1609.45 923.351C1610.74 924.718 1612.02 926.09 1613.29 927.466C1611.76 924.735 1610.2 922.01 1608.61 919.293ZM1608.11 922.787L1608.29 922.979L1608.48 923.181L1608.91 923.63C1609.41 926.082 1609.89 928.53 1610.36 930.971C1609.36 927.948 1608.33 924.924 1607.26 921.899C1607.54 922.195 1607.83 922.491 1608.11 922.787ZM1613.84 947.041C1613.45 944.671 1613.04 942.294 1612.61 939.911C1613.44 942.567 1614.25 945.223 1615.03 947.876C1614.64 947.597 1614.24 947.319 1613.84 947.041ZM1619.22 985.142C1617.8 972.958 1616.08 960.501 1613.98 947.847C1614.42 948.156 1614.86 948.465 1615.3 948.775C1619.15 961.943 1622.46 975.056 1625.29 988.037C1623.28 987.065 1621.26 986.1 1619.22 985.142ZM1623.77 1035.62C1622.7 1019.72 1621.29 1003.04 1619.29 985.814C1621.36 986.786 1623.41 987.765 1625.45 988.751C1629.14 1005.77 1632.04 1022.56 1634.35 1038.95C1630.86 1037.83 1627.33 1036.72 1623.77 1035.62ZM1634.97 1039.15C1643.56 1041.93 1651.95 1044.81 1660.14 1047.78C1656.08 1031.59 1651.24 1015.25 1645.45 998.915C1639.17 995.568 1632.72 992.288 1626.12 989.079C1629.8 1006.06 1632.68 1022.81 1634.97 1039.15ZM1645.94 998.521C1641.36 985.615 1636.19 972.707 1630.34 959.872C1638.02 965.78 1645.38 971.812 1652.42 977.956C1660.64 990.151 1668.07 1002.53 1674.78 1015.04C1665.55 1009.37 1655.95 1003.86 1645.94 998.521ZM1660.81 1048.02C1656.77 1031.89 1651.97 1015.61 1646.22 999.328C1656.33 1004.73 1666.02 1010.31 1675.32 1016.05C1683.47 1031.32 1690.55 1046.75 1696.72 1062.24C1685.2 1057.29 1673.24 1052.55 1660.81 1048.02ZM1697.49 1062.57C1712.31 1068.96 1726.39 1075.69 1739.77 1082.73C1731.26 1068.35 1721.75 1054.17 1711.1 1040.3C1700.16 1032.16 1688.58 1024.27 1676.32 1016.67C1684.37 1031.84 1691.38 1047.18 1697.49 1062.57ZM1675.78 1015.65C1687.75 1023.05 1699.08 1030.71 1709.79 1038.6C1708.24 1036.6 1706.66 1034.6 1705.05 1032.6C1690.25 1014.22 1673.39 996.425 1654.15 979.468C1662.09 991.376 1669.27 1003.46 1675.78 1015.65ZM1740.76 1083.25C1732.46 1069.14 1723.19 1055.22 1712.83 1041.59C1740.98 1062.73 1764.81 1085.52 1785.02 1109.37C1771.2 1100.28 1756.47 1091.56 1740.76 1083.25ZM1540.15 588.043C1625.54 694.112 1642.15 819.599 1648.03 914.978L1647.45 915.042C1641.57 819.686 1624.96 694.336 1539.68 588.398C1454.4 482.469 1300.42 395.904 1019.68 378.199C841.041 366.934 707.158 387.476 600.191 419.229C511.397 445.588 441.148 479.672 379.22 509.719C366.542 515.87 354.213 521.852 342.144 527.564C271.137 561.172 209.151 585.435 138.394 579.684C67.6404 573.933 -11.831 538.177 -117.849 451.88L-117.455 451.447C-11.4724 537.716 67.8923 573.391 138.476 579.128C209.057 584.864 270.91 560.67 341.908 527.067C353.962 521.362 366.28 515.385 378.948 509.239L378.968 509.229L378.97 509.228L378.972 509.227C440.9 479.18 511.2 445.072 600.046 418.697C707.086 386.922 841.042 366.373 1019.75 377.642C1300.6 395.354 1454.75 481.966 1540.15 588.043ZM1683.42 858.169C1677.54 762.789 1660.93 637.302 1575.54 531.234C1490.14 425.156 1335.99 338.545 1055.13 320.833C876.431 309.563 742.474 330.113 635.435 361.888C546.586 388.263 476.285 422.372 414.357 452.42C401.682 458.57 389.357 464.549 377.296 470.258C306.298 503.861 244.445 528.055 173.864 522.318C103.281 516.582 23.9158 480.907 -82.0673 394.638L-82.4607 395.071C23.5572 481.368 103.029 517.124 173.783 522.874C244.539 528.625 306.525 504.362 377.532 470.755C389.601 465.043 401.931 459.06 414.609 452.909C476.537 422.863 546.785 388.779 635.58 362.42C742.546 330.667 876.429 310.124 1055.06 321.39C1335.81 339.094 1489.79 425.66 1575.07 531.589C1660.35 637.527 1676.96 762.877 1682.84 858.232L1683.42 858.169ZM1620.99 478.098C1706.38 584.166 1722.99 709.653 1728.87 805.033L1728.29 805.097C1722.41 709.741 1705.8 584.391 1620.52 478.453C1535.24 372.524 1381.26 285.958 1100.52 268.254C921.881 256.989 787.998 277.531 681.032 309.284C592.238 335.643 521.989 369.727 460.061 399.773C447.383 405.925 435.053 411.907 422.984 417.619C351.977 451.226 289.991 475.489 219.235 469.738C148.481 463.988 69.0093 428.232 -37.0086 341.935L-36.615 341.502C69.3679 427.771 148.733 463.446 219.316 469.183C289.897 474.919 351.75 450.725 422.748 417.122C434.809 411.413 447.134 405.434 459.809 399.284C521.737 369.237 592.038 335.127 680.887 308.752C787.926 276.977 921.883 256.428 1100.59 267.697C1381.44 285.409 1535.59 372.02 1620.99 478.098ZM1780.44 754.179C1774.56 658.799 1757.95 533.312 1672.56 427.243C1587.16 321.166 1433.01 234.554 1152.15 216.843C973.451 205.573 839.494 226.123 732.455 257.898C643.606 284.273 573.305 318.382 511.377 348.429C498.702 354.579 486.378 360.559 474.317 366.267C403.318 399.871 341.465 424.065 270.884 418.328C200.301 412.592 120.936 376.916 14.9532 290.647L14.5595 291.08C120.577 377.377 200.049 413.134 270.803 418.884C341.559 424.635 403.545 400.372 474.553 366.764C486.621 361.052 498.951 355.07 511.629 348.919C573.557 318.872 643.806 284.788 732.6 258.43C839.567 226.676 973.449 206.134 1152.08 217.399C1432.83 235.104 1586.81 321.669 1672.09 427.598C1757.37 533.537 1773.98 658.886 1779.86 754.242L1780.44 754.179ZM1727.08 377.62C1812.47 483.689 1829.08 609.176 1834.96 704.556L1834.37 704.619C1828.49 609.263 1811.89 483.914 1726.61 377.975C1641.33 272.046 1487.34 185.481 1206.6 167.776C1027.97 156.511 894.084 177.053 787.117 208.806C698.323 235.165 628.074 269.249 566.147 299.295C553.468 305.447 541.138 311.429 529.07 317.141C458.062 350.749 396.077 375.012 325.32 369.261C254.566 363.51 175.095 327.754 69.0765 241.457L69.4702 241.024C175.453 327.293 254.818 362.968 325.401 368.705C395.982 374.441 457.835 350.247 528.834 316.644C540.895 310.936 553.219 304.956 565.894 298.806C627.823 268.759 698.124 234.649 786.972 208.275C894.012 176.499 1027.97 155.95 1206.67 167.219C1487.53 184.931 1641.68 271.543 1727.08 377.62ZM1889.99 655.074C1884.11 559.695 1867.5 434.208 1782.11 328.139C1696.71 222.061 1542.56 135.45 1261.7 117.738C1083 106.469 949.042 127.018 842.002 158.793C753.154 185.168 682.853 219.278 620.924 249.325C608.249 255.475 595.925 261.454 583.864 267.163C512.865 300.766 451.012 324.96 380.432 319.224C309.848 313.487 230.483 277.812 124.5 191.543L124.107 191.976C230.125 278.273 309.596 314.029 380.35 319.78C451.107 325.53 513.092 301.267 584.1 267.66C596.169 261.948 608.498 255.966 621.177 249.814C683.104 219.768 753.353 185.684 842.147 159.325C949.114 127.572 1083 107.03 1261.63 118.295C1542.37 135.999 1696.36 222.565 1781.64 328.494C1866.92 434.432 1883.52 559.782 1889.4 655.138L1889.99 655.074ZM1835.82 278.169C1921.21 384.238 1937.82 509.725 1943.7 605.104L1943.12 605.168C1937.24 509.812 1920.64 384.462 1835.35 278.524C1750.07 172.595 1596.09 86.0296 1315.35 68.3251C1136.71 57.0598 1002.83 77.6021 895.863 109.355C807.069 135.714 736.82 169.798 674.893 199.844C662.214 205.996 649.885 211.978 637.816 217.69C566.809 251.298 504.823 275.561 434.066 269.81C363.312 264.059 283.841 228.303 177.823 142.006L178.216 141.573C284.199 227.842 363.564 263.517 434.148 269.254C504.728 274.99 566.582 250.796 637.58 217.193C649.641 211.485 661.965 205.505 674.64 199.355C736.569 169.308 806.87 135.198 895.718 108.824C1002.76 77.0484 1136.71 56.4988 1315.42 67.7684C1596.28 85.4801 1750.43 172.092 1835.82 278.169ZM1994.65 554.032C1988.76 458.653 1972.15 333.166 1886.76 227.097C1801.37 121.019 1647.22 34.408 1366.36 16.6963C1187.66 5.42667 1053.7 25.9763 946.66 57.7514C857.812 84.1263 787.51 118.236 725.582 148.283L725.573 148.287C712.901 154.436 700.58 160.414 688.522 166.121C617.523 199.724 555.67 223.918 485.089 218.182C414.506 212.445 335.141 176.77 229.158 90.501L228.765 90.9338C334.783 177.231 414.254 212.987 485.008 218.738C555.765 224.488 617.75 200.225 688.758 166.618C700.826 160.906 713.156 154.924 725.835 148.772L725.836 148.772C787.763 118.725 858.011 84.6419 946.805 58.2833C1053.77 26.53 1187.65 5.98769 1366.29 17.253C1647.03 34.9575 1801.02 121.523 1886.29 227.452C1971.58 333.39 1988.18 458.74 1994.06 554.096L1994.65 554.032ZM1934.04 174.669C2019.43 280.737 2036.04 406.224 2041.92 501.604L2041.34 501.667C2035.46 406.312 2018.85 280.962 1933.57 175.024C1848.29 69.0947 1694.31 -17.4708 1413.56 -35.1753C1234.93 -46.4406 1101.05 -25.8983 994.081 5.85498C905.286 32.2138 835.038 66.2976 773.11 96.3439C760.432 102.495 748.102 108.478 736.033 114.19C665.026 147.797 603.04 172.06 532.284 166.309C461.53 160.559 382.058 124.803 276.04 38.5055L276.434 38.0727C382.417 124.341 461.782 160.017 532.365 165.753C602.946 171.49 664.799 147.296 735.797 113.693C747.858 107.984 760.182 102.005 772.857 95.8547C834.786 65.8074 905.087 31.698 993.936 5.32306C1100.98 -26.452 1234.93 -47.0016 1413.64 -35.732C1694.49 -18.0202 1848.64 68.5911 1934.04 174.669ZM2084.86 447.49C2078.98 352.11 2062.37 226.623 1976.98 120.555C1891.58 14.4768 1737.43 -72.1346 1456.58 -89.8463C1277.87 -101.116 1143.92 -80.5663 1036.88 -48.7912C948.027 -22.4163 877.726 11.6931 815.798 41.7404C803.123 47.8902 790.798 53.8699 778.737 59.5782C707.739 93.1815 645.886 117.376 575.305 111.639C504.722 105.903 425.357 70.2272 319.374 -16.0416L318.98 -15.6088C424.998 70.6885 504.47 106.445 575.224 112.195C645.98 117.946 707.966 93.6829 778.974 60.0753C791.042 54.3633 803.372 48.3811 816.05 42.2296C877.978 12.1833 948.227 -21.9005 1037.02 -48.2593C1143.99 -80.0126 1277.87 -100.555 1456.5 -89.2896C1737.25 -71.5851 1891.23 14.9804 1976.51 120.909C2061.79 226.848 2078.4 352.197 2084.28 447.553L2084.86 447.49Z" fill="white"/>
</g>
<defs>
<clipPath id="clip0_183_539">
<rect width="1920" height="1080" fill="white"/>
</clipPath>
</defs>
</svg>
