<svg width="165" height="82" viewBox="0 0 165 82" fill="none" xmlns="http://www.w3.org/2000/svg">
<path d="M39.2436 24.5495H58.1018H82.3481L58.1018 0.303207H33.8555C21.7324 0.303207 0.180242 15.1204 0.180176 40.7136H24.4264C24.4264 29.9375 29.8145 24.5495 39.2436 24.5495Z" fill="white"/>
<path d="M82.3481 56.8778V81.1241H33.8555C21.7324 81.1241 0.180242 66.3069 0.180176 40.7136H24.4264C24.4264 51.4898 29.8145 56.8778 39.2436 56.8778H82.3481Z" fill="white"/>
<path d="M106.594 56.8778H125.453C134.882 56.8778 140.27 51.4898 140.27 40.7136H164.516C164.516 53.406 159.215 63.4481 152.393 70.347L163.169 81.1241H130.841H106.594L82.3482 56.8778H106.594Z" fill="#C0EB6A"/>
<path d="M82.3482 24.5495V0.303207H130.841C142.964 0.303207 164.516 15.1204 164.516 40.7136H140.27C140.27 29.9375 134.882 24.5495 125.453 24.5495H82.3482Z" fill="#C0EB6A"/>
</svg>
